<mxfile host="app.diagrams.net" agent="Mozilla/5.0 (X11; Linux x86_64; rv:138.0) Gecko/20100101 Firefox/138.0" version="27.0.3">
  <diagram name="Página-1" id="24KQtWOBw3s6JnH9w8iy">
    <mxGraphModel dx="1426" dy="797" grid="1" gridSize="10" guides="1" tooltips="1" connect="1" arrows="1" fold="1" page="1" pageScale="1" pageWidth="1169" pageHeight="827" math="0" shadow="0">
      <root>
        <mxCell id="0" />
        <mxCell id="1" parent="0" />
        <mxCell id="W9a-vRDkBJejvf-2C88O-51" value="&lt;div&gt;Cliente&lt;/div&gt;" style="whiteSpace=wrap;html=1;align=center;" vertex="1" parent="1">
          <mxGeometry x="440" y="80" width="100" height="40" as="geometry" />
        </mxCell>
        <mxCell id="W9a-vRDkBJejvf-2C88O-52" value="Pedido" style="whiteSpace=wrap;html=1;align=center;" vertex="1" parent="1">
          <mxGeometry x="710" y="80" width="100" height="40" as="geometry" />
        </mxCell>
        <mxCell id="W9a-vRDkBJejvf-2C88O-53" value="Peça" style="whiteSpace=wrap;html=1;align=center;" vertex="1" parent="1">
          <mxGeometry x="890" y="180" width="100" height="40" as="geometry" />
        </mxCell>
        <mxCell id="W9a-vRDkBJejvf-2C88O-54" value="Trabalho&lt;span style=&quot;white-space: pre;&quot;&gt;&#x9;&lt;/span&gt;" style="whiteSpace=wrap;html=1;align=center;" vertex="1" parent="1">
          <mxGeometry x="890" y="350" width="100" height="40" as="geometry" />
        </mxCell>
        <mxCell id="W9a-vRDkBJejvf-2C88O-55" value="DocumentoVenda" style="whiteSpace=wrap;html=1;align=center;" vertex="1" parent="1">
          <mxGeometry x="630" y="320" width="100" height="40" as="geometry" />
        </mxCell>
        <mxCell id="W9a-vRDkBJejvf-2C88O-57" value="Arranjo" style="whiteSpace=wrap;html=1;align=center;" vertex="1" parent="1">
          <mxGeometry x="1000" y="80" width="100" height="40" as="geometry" />
        </mxCell>
        <mxCell id="W9a-vRDkBJejvf-2C88O-58" value="Artigo" style="whiteSpace=wrap;html=1;align=center;" vertex="1" parent="1">
          <mxGeometry x="910" y="450" width="100" height="40" as="geometry" />
        </mxCell>
        <mxCell id="W9a-vRDkBJejvf-2C88O-59" value="DocumentoCompra" style="whiteSpace=wrap;html=1;align=center;" vertex="1" parent="1">
          <mxGeometry x="485" y="450" width="100" height="40" as="geometry" />
        </mxCell>
        <mxCell id="W9a-vRDkBJejvf-2C88O-60" value="Fornecedor" style="whiteSpace=wrap;html=1;align=center;" vertex="1" parent="1">
          <mxGeometry x="260" y="450" width="100" height="40" as="geometry" />
        </mxCell>
        <mxCell id="W9a-vRDkBJejvf-2C88O-62" value="Loja" style="whiteSpace=wrap;html=1;align=center;" vertex="1" parent="1">
          <mxGeometry x="679.5" y="450" width="100" height="40" as="geometry" />
        </mxCell>
        <mxCell id="W9a-vRDkBJejvf-2C88O-64" value="" style="edgeStyle=entityRelationEdgeStyle;fontSize=12;html=1;endArrow=ERoneToMany;rounded=0;exitX=1;exitY=0.5;exitDx=0;exitDy=0;entryX=0;entryY=0.5;entryDx=0;entryDy=0;" edge="1" parent="1" source="W9a-vRDkBJejvf-2C88O-65" target="W9a-vRDkBJejvf-2C88O-57">
          <mxGeometry width="100" height="100" relative="1" as="geometry">
            <mxPoint x="760" y="210" as="sourcePoint" />
            <mxPoint x="760" y="210" as="targetPoint" />
            <Array as="points">
              <mxPoint x="700" y="320" />
              <mxPoint x="740" y="350" />
              <mxPoint x="780" y="330" />
              <mxPoint x="800" y="370" />
            </Array>
          </mxGeometry>
        </mxCell>
        <mxCell id="W9a-vRDkBJejvf-2C88O-68" value="" style="endArrow=none;html=1;rounded=0;entryX=0.88;entryY=1;entryDx=0;entryDy=0;entryPerimeter=0;" edge="1" parent="1" source="W9a-vRDkBJejvf-2C88O-69" target="W9a-vRDkBJejvf-2C88O-52">
          <mxGeometry relative="1" as="geometry">
            <mxPoint x="720" y="350" as="sourcePoint" />
            <mxPoint x="720" y="120" as="targetPoint" />
          </mxGeometry>
        </mxCell>
        <mxCell id="W9a-vRDkBJejvf-2C88O-71" value="" style="endArrow=none;html=1;rounded=0;exitX=0;exitY=0.5;exitDx=0;exitDy=0;" edge="1" parent="1" source="W9a-vRDkBJejvf-2C88O-53" target="W9a-vRDkBJejvf-2C88O-69">
          <mxGeometry relative="1" as="geometry">
            <mxPoint x="720" y="350" as="sourcePoint" />
            <mxPoint x="720" y="120" as="targetPoint" />
          </mxGeometry>
        </mxCell>
        <mxCell id="W9a-vRDkBJejvf-2C88O-69" value="Contém" style="shape=rhombus;double=1;perimeter=rhombusPerimeter;whiteSpace=wrap;html=1;align=center;" vertex="1" parent="1">
          <mxGeometry x="810" y="160" width="60" height="60" as="geometry" />
        </mxCell>
        <mxCell id="W9a-vRDkBJejvf-2C88O-72" value="" style="endArrow=none;html=1;rounded=0;" edge="1" parent="1" source="W9a-vRDkBJejvf-2C88O-51" target="W9a-vRDkBJejvf-2C88O-52">
          <mxGeometry relative="1" as="geometry">
            <mxPoint x="540" y="100" as="sourcePoint" />
            <mxPoint x="700" y="100" as="targetPoint" />
          </mxGeometry>
        </mxCell>
        <mxCell id="W9a-vRDkBJejvf-2C88O-70" value="Faz" style="shape=rhombus;double=1;perimeter=rhombusPerimeter;whiteSpace=wrap;html=1;align=center;" vertex="1" parent="1">
          <mxGeometry x="584.5" y="70" width="80" height="60" as="geometry" />
        </mxCell>
        <mxCell id="W9a-vRDkBJejvf-2C88O-79" value="" style="edgeStyle=entityRelationEdgeStyle;fontSize=12;html=1;endArrow=ERoneToMany;rounded=0;entryX=1;entryY=0.5;entryDx=0;entryDy=0;exitX=1;exitY=0.5;exitDx=0;exitDy=0;" edge="1" parent="1" source="W9a-vRDkBJejvf-2C88O-80" target="W9a-vRDkBJejvf-2C88O-58">
          <mxGeometry width="100" height="100" relative="1" as="geometry">
            <mxPoint x="1030" y="490" as="sourcePoint" />
            <mxPoint x="1130" y="390" as="targetPoint" />
          </mxGeometry>
        </mxCell>
        <mxCell id="W9a-vRDkBJejvf-2C88O-81" value="" style="edgeStyle=entityRelationEdgeStyle;fontSize=12;html=1;endArrow=ERoneToMany;rounded=0;exitX=1;exitY=0.5;exitDx=0;exitDy=0;entryX=0;entryY=0.5;entryDx=0;entryDy=0;" edge="1" parent="1" source="W9a-vRDkBJejvf-2C88O-52" target="W9a-vRDkBJejvf-2C88O-65">
          <mxGeometry width="100" height="100" relative="1" as="geometry">
            <mxPoint x="810" y="100" as="sourcePoint" />
            <mxPoint x="1020" y="100" as="targetPoint" />
            <Array as="points" />
          </mxGeometry>
        </mxCell>
        <mxCell id="W9a-vRDkBJejvf-2C88O-65" value="Contém" style="shape=rhombus;double=1;perimeter=rhombusPerimeter;whiteSpace=wrap;html=1;align=center;" vertex="1" parent="1">
          <mxGeometry x="880" y="70" width="60" height="60" as="geometry" />
        </mxCell>
        <mxCell id="W9a-vRDkBJejvf-2C88O-82" value="" style="edgeStyle=entityRelationEdgeStyle;fontSize=12;html=1;endArrow=ERoneToMany;rounded=0;entryX=1;entryY=0.5;entryDx=0;entryDy=0;exitX=1;exitY=0.5;exitDx=0;exitDy=0;" edge="1" parent="1" source="W9a-vRDkBJejvf-2C88O-57" target="W9a-vRDkBJejvf-2C88O-80">
          <mxGeometry width="100" height="100" relative="1" as="geometry">
            <mxPoint x="1120" y="100" as="sourcePoint" />
            <mxPoint x="970" y="530" as="targetPoint" />
          </mxGeometry>
        </mxCell>
        <mxCell id="W9a-vRDkBJejvf-2C88O-80" value="&lt;div&gt;Contém&lt;/div&gt;" style="shape=rhombus;double=1;perimeter=rhombusPerimeter;whiteSpace=wrap;html=1;align=center;" vertex="1" parent="1">
          <mxGeometry x="1060" y="360" width="60" height="60" as="geometry" />
        </mxCell>
        <mxCell id="W9a-vRDkBJejvf-2C88O-84" value="" style="endArrow=none;html=1;rounded=0;entryX=0.575;entryY=-0.025;entryDx=0;entryDy=0;entryPerimeter=0;exitX=0.5;exitY=1;exitDx=0;exitDy=0;" edge="1" parent="1" source="W9a-vRDkBJejvf-2C88O-85" target="W9a-vRDkBJejvf-2C88O-55">
          <mxGeometry relative="1" as="geometry">
            <mxPoint x="460" y="270" as="sourcePoint" />
            <mxPoint x="620" y="270" as="targetPoint" />
          </mxGeometry>
        </mxCell>
        <mxCell id="W9a-vRDkBJejvf-2C88O-86" value="" style="endArrow=none;html=1;rounded=0;entryX=0.575;entryY=-0.025;entryDx=0;entryDy=0;entryPerimeter=0;exitX=0.25;exitY=1;exitDx=0;exitDy=0;" edge="1" parent="1" source="W9a-vRDkBJejvf-2C88O-52" target="W9a-vRDkBJejvf-2C88O-85">
          <mxGeometry relative="1" as="geometry">
            <mxPoint x="735" y="120" as="sourcePoint" />
            <mxPoint x="722" y="319" as="targetPoint" />
          </mxGeometry>
        </mxCell>
        <mxCell id="W9a-vRDkBJejvf-2C88O-85" value="Gera" style="shape=rhombus;double=1;perimeter=rhombusPerimeter;whiteSpace=wrap;html=1;align=center;" vertex="1" parent="1">
          <mxGeometry x="694.5" y="180" width="70" height="60" as="geometry" />
        </mxCell>
        <mxCell id="W9a-vRDkBJejvf-2C88O-87" value="" style="edgeStyle=entityRelationEdgeStyle;fontSize=12;html=1;endArrow=ERoneToMany;rounded=0;exitX=1;exitY=1;exitDx=0;exitDy=0;entryX=0;entryY=0;entryDx=0;entryDy=0;" edge="1" parent="1" source="W9a-vRDkBJejvf-2C88O-105" target="W9a-vRDkBJejvf-2C88O-55">
          <mxGeometry width="100" height="100" relative="1" as="geometry">
            <mxPoint x="580" y="470" as="sourcePoint" />
            <mxPoint x="680" y="370" as="targetPoint" />
          </mxGeometry>
        </mxCell>
        <mxCell id="W9a-vRDkBJejvf-2C88O-88" value="" style="edgeStyle=entityRelationEdgeStyle;fontSize=12;html=1;endArrow=ERoneToMany;rounded=0;exitX=1;exitY=0.5;exitDx=0;exitDy=0;entryX=0;entryY=0.75;entryDx=0;entryDy=0;" edge="1" parent="1" source="W9a-vRDkBJejvf-2C88O-62" target="W9a-vRDkBJejvf-2C88O-58">
          <mxGeometry width="100" height="100" relative="1" as="geometry">
            <mxPoint x="800" y="660" as="sourcePoint" />
            <mxPoint x="900" y="560" as="targetPoint" />
          </mxGeometry>
        </mxCell>
        <mxCell id="W9a-vRDkBJejvf-2C88O-90" value="" style="edgeStyle=entityRelationEdgeStyle;fontSize=12;html=1;endArrow=ERoneToMany;rounded=0;exitX=0.75;exitY=0;exitDx=0;exitDy=0;entryX=0.83;entryY=1.025;entryDx=0;entryDy=0;entryPerimeter=0;" edge="1" parent="1" source="W9a-vRDkBJejvf-2C88O-62" target="W9a-vRDkBJejvf-2C88O-55">
          <mxGeometry width="100" height="100" relative="1" as="geometry">
            <mxPoint x="710" y="450" as="sourcePoint" />
            <mxPoint x="810" y="350" as="targetPoint" />
          </mxGeometry>
        </mxCell>
        <mxCell id="W9a-vRDkBJejvf-2C88O-91" value="" style="edgeStyle=entityRelationEdgeStyle;fontSize=12;html=1;endArrow=ERoneToMany;rounded=0;entryX=1;entryY=0.5;entryDx=0;entryDy=0;" edge="1" parent="1" source="W9a-vRDkBJejvf-2C88O-62" target="W9a-vRDkBJejvf-2C88O-59">
          <mxGeometry width="100" height="100" relative="1" as="geometry">
            <mxPoint x="620" y="650" as="sourcePoint" />
            <mxPoint x="720" y="550" as="targetPoint" />
          </mxGeometry>
        </mxCell>
        <mxCell id="W9a-vRDkBJejvf-2C88O-94" value="" style="edgeStyle=entityRelationEdgeStyle;fontSize=12;html=1;endArrow=ERoneToMany;rounded=0;exitX=1;exitY=0.5;exitDx=0;exitDy=0;entryX=0.75;entryY=1;entryDx=0;entryDy=0;" edge="1" parent="1" source="W9a-vRDkBJejvf-2C88O-100" target="W9a-vRDkBJejvf-2C88O-57">
          <mxGeometry width="100" height="100" relative="1" as="geometry">
            <mxPoint x="990" y="330" as="sourcePoint" />
            <mxPoint x="1080" y="110" as="targetPoint" />
            <Array as="points">
              <mxPoint x="1050" y="230" />
            </Array>
          </mxGeometry>
        </mxCell>
        <mxCell id="W9a-vRDkBJejvf-2C88O-95" value="" style="edgeStyle=entityRelationEdgeStyle;fontSize=12;html=1;endArrow=ERoneToMany;rounded=0;exitX=0.5;exitY=0;exitDx=0;exitDy=0;entryX=0.36;entryY=1.1;entryDx=0;entryDy=0;entryPerimeter=0;" edge="1" parent="1" source="W9a-vRDkBJejvf-2C88O-98" target="W9a-vRDkBJejvf-2C88O-53">
          <mxGeometry width="100" height="100" relative="1" as="geometry">
            <mxPoint x="1090" y="180" as="sourcePoint" />
            <mxPoint x="990" y="280" as="targetPoint" />
          </mxGeometry>
        </mxCell>
        <mxCell id="W9a-vRDkBJejvf-2C88O-97" value="" style="edgeStyle=entityRelationEdgeStyle;fontSize=12;html=1;endArrow=ERmany;startArrow=ERmany;rounded=0;entryX=0;entryY=0.5;entryDx=0;entryDy=0;exitX=1;exitY=0.5;exitDx=0;exitDy=0;" edge="1" parent="1" source="W9a-vRDkBJejvf-2C88O-102" target="W9a-vRDkBJejvf-2C88O-54">
          <mxGeometry width="100" height="100" relative="1" as="geometry">
            <mxPoint x="780" y="640" as="sourcePoint" />
            <mxPoint x="880" y="540" as="targetPoint" />
          </mxGeometry>
        </mxCell>
        <mxCell id="W9a-vRDkBJejvf-2C88O-99" value="" style="edgeStyle=entityRelationEdgeStyle;fontSize=12;html=1;endArrow=ERoneToMany;rounded=0;exitX=0.5;exitY=0;exitDx=0;exitDy=0;entryX=0.36;entryY=1.1;entryDx=0;entryDy=0;entryPerimeter=0;" edge="1" parent="1" source="W9a-vRDkBJejvf-2C88O-54" target="W9a-vRDkBJejvf-2C88O-98">
          <mxGeometry width="100" height="100" relative="1" as="geometry">
            <mxPoint x="910" y="320" as="sourcePoint" />
            <mxPoint x="926" y="224" as="targetPoint" />
          </mxGeometry>
        </mxCell>
        <mxCell id="W9a-vRDkBJejvf-2C88O-98" value="Contém" style="shape=rhombus;double=1;perimeter=rhombusPerimeter;whiteSpace=wrap;html=1;align=center;" vertex="1" parent="1">
          <mxGeometry x="900" y="250" width="60" height="60" as="geometry" />
        </mxCell>
        <mxCell id="W9a-vRDkBJejvf-2C88O-101" value="" style="edgeStyle=entityRelationEdgeStyle;fontSize=12;html=1;endArrow=ERoneToMany;rounded=0;exitX=1;exitY=0.5;exitDx=0;exitDy=0;entryX=0.75;entryY=1;entryDx=0;entryDy=0;" edge="1" parent="1" source="W9a-vRDkBJejvf-2C88O-54" target="W9a-vRDkBJejvf-2C88O-100">
          <mxGeometry width="100" height="100" relative="1" as="geometry">
            <mxPoint x="960" y="340" as="sourcePoint" />
            <mxPoint x="1075" y="120" as="targetPoint" />
            <Array as="points" />
          </mxGeometry>
        </mxCell>
        <mxCell id="W9a-vRDkBJejvf-2C88O-100" value="Contém" style="shape=rhombus;double=1;perimeter=rhombusPerimeter;whiteSpace=wrap;html=1;align=center;" vertex="1" parent="1">
          <mxGeometry x="1000" y="170" width="60" height="60" as="geometry" />
        </mxCell>
        <mxCell id="W9a-vRDkBJejvf-2C88O-103" value="" style="edgeStyle=entityRelationEdgeStyle;fontSize=12;html=1;endArrow=ERmany;startArrow=ERmany;rounded=0;entryX=0;entryY=0.5;entryDx=0;entryDy=0;exitX=1;exitY=0.5;exitDx=0;exitDy=0;" edge="1" parent="1" source="W9a-vRDkBJejvf-2C88O-55" target="W9a-vRDkBJejvf-2C88O-102">
          <mxGeometry width="100" height="100" relative="1" as="geometry">
            <mxPoint x="770" y="340" as="sourcePoint" />
            <mxPoint x="860" y="340" as="targetPoint" />
          </mxGeometry>
        </mxCell>
        <mxCell id="W9a-vRDkBJejvf-2C88O-102" value="Gera" style="shape=rhombus;double=1;perimeter=rhombusPerimeter;whiteSpace=wrap;html=1;align=center;" vertex="1" parent="1">
          <mxGeometry x="764.5" y="310" width="70" height="60" as="geometry" />
        </mxCell>
        <mxCell id="W9a-vRDkBJejvf-2C88O-106" value="" style="edgeStyle=entityRelationEdgeStyle;fontSize=12;html=1;endArrow=ERoneToMany;rounded=0;exitX=1;exitY=1;exitDx=0;exitDy=0;entryX=0;entryY=0;entryDx=0;entryDy=0;" edge="1" parent="1" source="W9a-vRDkBJejvf-2C88O-51" target="W9a-vRDkBJejvf-2C88O-105">
          <mxGeometry width="100" height="100" relative="1" as="geometry">
            <mxPoint x="540" y="120" as="sourcePoint" />
            <mxPoint x="630" y="320" as="targetPoint" />
          </mxGeometry>
        </mxCell>
        <mxCell id="W9a-vRDkBJejvf-2C88O-105" value="Relationship" style="shape=rhombus;double=1;perimeter=rhombusPerimeter;whiteSpace=wrap;html=1;align=center;" vertex="1" parent="1">
          <mxGeometry x="540" y="190" width="85" height="60" as="geometry" />
        </mxCell>
        <mxCell id="W9a-vRDkBJejvf-2C88O-107" value="" style="edgeStyle=entityRelationEdgeStyle;fontSize=12;html=1;endArrow=ERoneToMany;rounded=0;entryX=0;entryY=0.5;entryDx=0;entryDy=0;exitX=1;exitY=0.5;exitDx=0;exitDy=0;" edge="1" parent="1" source="W9a-vRDkBJejvf-2C88O-60" target="W9a-vRDkBJejvf-2C88O-59">
          <mxGeometry width="100" height="100" relative="1" as="geometry">
            <mxPoint x="340" y="640" as="sourcePoint" />
            <mxPoint x="440" y="540" as="targetPoint" />
          </mxGeometry>
        </mxCell>
      </root>
    </mxGraphModel>
  </diagram>
</mxfile>
